<svg width="122" height="34" viewBox="0 0 122 34" fill="none" xmlns="http://www.w3.org/2000/svg">
<path d="M16.7344 20.7266H7.48828L5.73047 26H0.123047L9.65039 0.40625H14.5371L24.1172 26H18.5098L16.7344 20.7266ZM8.91211 16.4551H15.3105L12.0938 6.875L8.91211 16.4551ZM25.4355 16.3496C25.4355 13.4316 26.127 11.082 27.5098 9.30078C28.9043 7.51953 30.7793 6.62891 33.1348 6.62891C35.2207 6.62891 36.8438 7.34375 38.0039 8.77344L38.2148 6.98047H42.8203V25.3672C42.8203 27.0312 42.4395 28.4785 41.6777 29.709C40.9277 30.9395 39.8672 31.877 38.4961 32.5215C37.125 33.166 35.5195 33.4883 33.6797 33.4883C32.2852 33.4883 30.9258 33.207 29.6016 32.6445C28.2773 32.0938 27.2754 31.3789 26.5957 30.5L28.8457 27.4062C30.1113 28.8242 31.6465 29.5332 33.4512 29.5332C34.7988 29.5332 35.8477 29.1699 36.5977 28.4434C37.3477 27.7285 37.7227 26.709 37.7227 25.3848V24.3652C36.5508 25.6895 35.0098 26.3516 33.0996 26.3516C30.8145 26.3516 28.9629 25.4609 27.5449 23.6797C26.1387 21.8867 25.4355 19.5137 25.4355 16.5605V16.3496ZM30.5156 16.7188C30.5156 18.4414 30.8613 19.7949 31.5527 20.7793C32.2441 21.752 33.1934 22.2383 34.4004 22.2383C35.9473 22.2383 37.0547 21.6582 37.7227 20.498V12.5C37.043 11.3398 35.9473 10.7598 34.4355 10.7598C33.2168 10.7598 32.2559 11.2578 31.5527 12.2539C30.8613 13.25 30.5156 14.7383 30.5156 16.7188ZM55.4941 26.3516C52.7051 26.3516 50.4316 25.4961 48.6738 23.7852C46.9277 22.0742 46.0547 19.7949 46.0547 16.9473V16.4551C46.0547 14.5449 46.4238 12.8398 47.1621 11.3398C47.9004 9.82812 48.9434 8.66797 50.291 7.85938C51.6504 7.03906 53.1973 6.62891 54.9316 6.62891C57.5332 6.62891 59.5781 7.44922 61.0664 9.08984C62.5664 10.7305 63.3164 13.0566 63.3164 16.0684V18.1426H51.2051C51.3691 19.3848 51.8613 20.3809 52.6816 21.1309C53.5137 21.8809 54.5625 22.2559 55.8281 22.2559C57.7852 22.2559 59.3145 21.5469 60.416 20.1289L62.9121 22.9238C62.1504 24.002 61.1191 24.8457 59.8184 25.4551C58.5176 26.0527 57.0762 26.3516 55.4941 26.3516ZM54.9141 10.7422C53.9062 10.7422 53.0859 11.082 52.4531 11.7617C51.832 12.4414 51.4336 13.4141 51.2578 14.6797H58.3242V14.2754C58.3008 13.1504 57.9961 12.2832 57.4102 11.6738C56.8242 11.0527 55.9922 10.7422 54.9141 10.7422ZM70.8926 6.98047L71.0508 9.17773C72.4102 7.47852 74.2324 6.62891 76.5176 6.62891C78.5332 6.62891 80.0332 7.2207 81.0176 8.4043C82.002 9.58789 82.5059 11.3574 82.5293 13.7129V26H77.4492V13.8359C77.4492 12.7578 77.2148 11.9785 76.7461 11.498C76.2773 11.0059 75.498 10.7598 74.4082 10.7598C72.9785 10.7598 71.9062 11.3691 71.1914 12.5879V26H66.1113V6.98047H70.8926ZM94.3066 22.2559C95.2441 22.2559 96.0059 21.998 96.5918 21.4824C97.1777 20.9668 97.4824 20.2812 97.5059 19.4258H102.27C102.258 20.7148 101.906 21.8984 101.215 22.9766C100.523 24.043 99.5742 24.875 98.3672 25.4727C97.1719 26.0586 95.8477 26.3516 94.3945 26.3516C91.6758 26.3516 89.5312 25.4902 87.9609 23.7676C86.3906 22.0332 85.6055 19.6426 85.6055 16.5957V16.2617C85.6055 13.332 86.3848 10.9941 87.9434 9.24805C89.502 7.50195 91.6406 6.62891 94.3594 6.62891C96.7383 6.62891 98.6426 7.30859 100.072 8.66797C101.514 10.0156 102.246 11.8145 102.27 14.0645H97.5059C97.4824 13.0801 97.1777 12.2832 96.5918 11.6738C96.0059 11.0527 95.2324 10.7422 94.2715 10.7422C93.0879 10.7422 92.1914 11.1758 91.582 12.043C90.9844 12.8984 90.6855 14.293 90.6855 16.2266V16.7539C90.6855 18.7109 90.9844 20.1172 91.582 20.9727C92.1797 21.8281 93.0879 22.2559 94.3066 22.2559ZM112.271 18.8105L115.787 6.98047H121.236L113.59 28.9531L113.168 29.9551C112.031 32.4395 110.156 33.6816 107.543 33.6816C106.805 33.6816 106.055 33.5703 105.293 33.3477V29.498L106.066 29.5156C107.027 29.5156 107.742 29.3691 108.211 29.0762C108.691 28.7832 109.066 28.2969 109.336 27.6172L109.934 26.0527L103.271 6.98047H108.738L112.271 18.8105Z" fill="#363636"/>
</svg>
